<?xml version="1.0" encoding="UTF-8"?>
<!DOCTYPE svg PUBLIC "-//W3C//DTD SVG 1.1//EN" "http://www.w3.org/Graphics/SVG/1.1/DTD/svg11.dtd">
<svg xmlns="http://www.w3.org/2000/svg" version="1.1" width="500px" height="500px" style="shape-rendering:geometricPrecision; text-rendering:geometricPrecision; image-rendering:optimizeQuality; fill-rule:evenodd; clip-rule:evenodd" xmlns:xlink="http://www.w3.org/1999/xlink">
<g><path style="opacity:1" fill="#f88576" d="M 300.5,9.5 C 290.153,8.59109 279.82,7.42443 269.5,6C 255.167,5.33333 240.833,5.33333 226.5,6C 216.598,8.21408 206.598,9.71408 196.5,10.5C 198.167,9.83333 199.833,9.16667 201.5,8.5C 207.061,8.04438 212.394,7.04438 217.5,5.5C 236.483,4.41221 255.483,4.24554 274.5,5C 283.374,6.17664 292.041,7.67664 300.5,9.5 Z"/></g>
<g><path style="opacity:1" fill="#d79b92" d="M 336.5,17.5 C 336.5,18.1667 336.5,18.8333 336.5,19.5C 328.888,17.3468 321.221,15.3468 313.5,13.5C 309.162,12.1662 304.828,10.8328 300.5,9.5C 292.041,7.67664 283.374,6.17664 274.5,5C 255.483,4.24554 236.483,4.41221 217.5,5.5C 213.321,6.22636 209.321,6.22636 205.5,5.5C 250.441,-2.94858 294.107,1.05142 336.5,17.5 Z"/></g>
<g><path style="opacity:1" fill="#fa705d" d="M 300.5,9.5 C 304.828,10.8328 309.162,12.1662 313.5,13.5C 315.514,15.1918 317.848,16.5251 320.5,17.5C 320.333,17.8333 320.167,18.1667 320,18.5C 272.567,17.8357 225.067,17.169 177.5,16.5C 184.295,15.5589 190.628,13.5589 196.5,10.5C 206.598,9.71408 216.598,8.21408 226.5,6C 240.833,5.33333 255.167,5.33333 269.5,6C 279.82,7.42443 290.153,8.59109 300.5,9.5 Z"/></g>
<g><path style="opacity:1" fill="#e99890" d="M 204.5,5.5 C 204.833,5.5 205.167,5.5 205.5,5.5C 209.321,6.22636 213.321,6.22636 217.5,5.5C 212.394,7.04438 207.061,8.04438 201.5,8.5C 202.9,7.89992 203.9,6.89992 204.5,5.5 Z"/></g>
<g><path style="opacity:1" fill="#f97165" d="M 196.5,10.5 C 190.628,13.5589 184.295,15.5589 177.5,16.5C 225.067,17.169 272.567,17.8357 320,18.5C 320.167,18.1667 320.333,17.8333 320.5,17.5C 317.848,16.5251 315.514,15.1918 313.5,13.5C 321.221,15.3468 328.888,17.3468 336.5,19.5C 338.629,20.2028 340.629,21.2028 342.5,22.5C 343.694,23.2719 344.694,24.2719 345.5,25.5C 342.921,25.9167 340.754,25.25 339,23.5C 338.581,24.6721 337.915,25.6721 337,26.5C 324.073,25.8378 311.073,25.5045 298,25.5C 284.679,25.5183 271.512,26.185 258.5,27.5C 257.5,26.8333 256.5,26.1667 255.5,25.5C 252.167,26.1667 248.833,26.8333 245.5,27.5C 244.009,24.8023 241.676,24.8023 238.5,27.5C 237.692,27.1924 237.025,26.6924 236.5,26C 209.127,25.5189 181.961,25.3523 155,25.5C 151.497,26.4352 147.997,27.4352 144.5,28.5C 146.428,26.5259 148.761,25.0259 151.5,24C 165.984,17.7569 180.984,13.2569 196.5,10.5 Z"/></g>
<g><path style="opacity:1" fill="#d3978f" d="M 204.5,5.5 C 203.9,6.89992 202.9,7.89992 201.5,8.5C 199.833,9.16667 198.167,9.83333 196.5,10.5C 180.984,13.2569 165.984,17.7569 151.5,24C 148.761,25.0259 146.428,26.5259 144.5,28.5C 138.29,30.0081 132.957,33.0081 128.5,37.5C 124.248,38.9594 120.248,40.9594 116.5,43.5C 116.5,42.8333 116.5,42.1667 116.5,41.5C 137.191,27.8249 159.524,17.3249 183.5,10C 190.448,8.18221 197.448,6.68221 204.5,5.5 Z"/></g>
<g><path style="opacity:1" fill="#c79c97" d="M 336.5,17.5 C 341.91,19.8516 347.244,22.1849 352.5,24.5C 351.432,25.4345 350.099,25.7678 348.5,25.5C 346.97,23.6535 344.97,22.6535 342.5,22.5C 340.629,21.2028 338.629,20.2028 336.5,19.5C 336.5,18.8333 336.5,18.1667 336.5,17.5 Z"/></g>
<g><path style="opacity:1" fill="#f9705d" d="M 345.5,25.5 C 346.5,25.5 347.5,25.5 348.5,25.5C 372.638,37.2943 394.638,52.2943 414.5,70.5C 410.799,68.5593 407.299,66.226 404,63.5C 403.383,64.4491 403.549,65.2825 404.5,66C 384,66.1667 363.5,66.3333 343,66.5C 322.018,66.4888 301.185,65.8221 280.5,64.5C 280.018,67.7028 278.685,70.3694 276.5,72.5C 277.038,70.8828 277.371,69.2161 277.5,67.5C 278.651,62.3497 278.817,57.0164 278,51.5C 277.722,50.5842 277.222,49.9175 276.5,49.5C 275.379,47.2585 274.213,44.9252 273,42.5C 257.417,26.8858 241.417,26.5524 225,41.5C 221.769,46.773 219.935,52.4397 219.5,58.5C 218.521,61.6248 218.187,64.9581 218.5,68.5C 217.521,67.2347 216.521,65.9014 215.5,64.5C 215.089,65.2624 214.923,66.2624 215,67.5C 174.333,66.8333 133.667,66.1667 93,65.5C 91.4624,66.8492 89.6291,67.5159 87.5,67.5C 89.9257,64.0677 92.9257,61.4011 96.5,59.5C 100.207,57.3115 103.54,54.6448 106.5,51.5C 106.842,50.6618 107.508,50.3284 108.5,50.5C 112.479,48.2805 116.812,47.1139 121.5,47C 120.269,45.8173 120.269,44.6507 121.5,43.5C 123.318,40.8059 125.651,38.8059 128.5,37.5C 132.957,33.0081 138.29,30.0081 144.5,28.5C 147.997,27.4352 151.497,26.4352 155,25.5C 181.961,25.3523 209.127,25.5189 236.5,26C 237.025,26.6924 237.692,27.1924 238.5,27.5C 241.676,24.8023 244.009,24.8023 245.5,27.5C 248.833,26.8333 252.167,26.1667 255.5,25.5C 256.5,26.1667 257.5,26.8333 258.5,27.5C 271.512,26.185 284.679,25.5183 298,25.5C 311.073,25.5045 324.073,25.8378 337,26.5C 337.915,25.6721 338.581,24.6721 339,23.5C 340.754,25.25 342.921,25.9167 345.5,25.5 Z"/></g>
<g><path style="opacity:1" fill="#e99185" d="M 342.5,22.5 C 344.97,22.6535 346.97,23.6535 348.5,25.5C 347.5,25.5 346.5,25.5 345.5,25.5C 344.694,24.2719 343.694,23.2719 342.5,22.5 Z"/></g>
<g><path style="opacity:1" fill="#d7948d" d="M 352.5,24.5 C 376.627,35.9632 398.294,50.9632 417.5,69.5C 417.158,70.3382 416.492,70.6716 415.5,70.5C 415.167,70.5 414.833,70.5 414.5,70.5C 394.638,52.2943 372.638,37.2943 348.5,25.5C 350.099,25.7678 351.432,25.4345 352.5,24.5 Z"/></g>
<g><path style="opacity:1" fill="#d0877f" d="M 276.5,49.5 C 277.551,52.6558 277.551,55.6558 276.5,58.5C 273.665,43.1829 264.498,34.5162 249,32.5C 233.187,34.4881 223.687,43.1548 220.5,58.5C 220.167,58.5 219.833,58.5 219.5,58.5C 219.935,52.4397 221.769,46.773 225,41.5C 241.417,26.5524 257.417,26.8858 273,42.5C 274.213,44.9252 275.379,47.2585 276.5,49.5 Z"/></g>
<g><path style="opacity:1" fill="#f8776a" d="M 128.5,37.5 C 125.651,38.8059 123.318,40.8059 121.5,43.5C 120.269,44.6507 120.269,45.8173 121.5,47C 116.812,47.1139 112.479,48.2805 108.5,50.5C 110.569,47.4275 113.236,45.0941 116.5,43.5C 120.248,40.9594 124.248,38.9594 128.5,37.5 Z"/></g>
<g><path style="opacity:1" fill="#f38376" d="M 106.5,51.5 C 103.54,54.6448 100.207,57.3115 96.5,59.5C 99.0948,55.8743 102.428,53.2076 106.5,51.5 Z"/></g>
<g><path style="opacity:1" fill="#ef9286" d="M 276.5,49.5 C 277.222,49.9175 277.722,50.5842 278,51.5C 278.817,57.0164 278.651,62.3497 277.5,67.5C 277.768,65.901 277.434,64.5676 276.5,63.5C 276.5,61.8333 276.5,60.1667 276.5,58.5C 277.551,55.6558 277.551,52.6558 276.5,49.5 Z"/></g>
<g><path style="opacity:1" fill="#f96a5d" d="M 414.5,70.5 C 414.833,70.5 415.167,70.5 415.5,70.5C 437.178,92.3222 454.678,116.989 468,144.5C 468.505,146.518 469.005,148.518 469.5,150.5C 467.743,149.213 466.076,147.713 464.5,146C 465.476,143.853 465.309,141.686 464,139.5C 462.333,138.5 461,137.167 460,135.5C 459.727,137.101 459.227,138.601 458.5,140C 376.793,140.169 295.126,140.669 213.5,141.5C 212.069,141.023 210.736,140.357 209.5,139.5C 200.167,138.167 190.833,138.167 181.5,139.5C 180.167,140.167 178.833,140.833 177.5,141.5C 189.326,142.167 200.993,142.833 212.5,143.5C 200.833,143.5 189.167,143.5 177.5,143.5C 177.167,143.5 176.833,143.5 176.5,143.5C 176.5,142.5 176.5,141.5 176.5,140.5C 130.167,140.5 83.8333,140.5 37.5,140.5C 37.5,139.5 37.5,138.5 37.5,137.5C 38.675,137.719 39.675,137.386 40.5,136.5C 39.6086,135.41 38.6086,135.41 37.5,136.5C 35.1312,139.939 32.7978,143.273 30.5,146.5C 41.2755,119.276 57.2755,95.6097 78.5,75.5C 82.1002,73.5698 85.1002,70.9031 87.5,67.5C 89.6291,67.5159 91.4624,66.8492 93,65.5C 133.667,66.1667 174.333,66.8333 215,67.5C 214.923,66.2624 215.089,65.2624 215.5,64.5C 216.521,65.9014 217.521,67.2347 218.5,68.5C 219.167,69.1667 219.833,69.8333 220.5,70.5C 223.777,81.7826 231.11,88.4492 242.5,90.5C 246.981,91.6484 251.648,91.8151 256.5,91C 258.744,90.9504 260.411,90.1171 261.5,88.5C 267.872,84.4609 272.872,79.1275 276.5,72.5C 278.685,70.3694 280.018,67.7028 280.5,64.5C 301.185,65.8221 322.018,66.4888 343,66.5C 363.5,66.3333 384,66.1667 404.5,66C 403.549,65.2825 403.383,64.4491 404,63.5C 407.299,66.226 410.799,68.5593 414.5,70.5 Z"/></g>
<g><path style="opacity:1" fill="#eb8a82" d="M 219.5,58.5 C 219.833,58.5 220.167,58.5 220.5,58.5C 220.5,59.8333 220.5,61.1667 220.5,62.5C 219.503,65.005 219.503,67.6717 220.5,70.5C 219.833,69.8333 219.167,69.1667 218.5,68.5C 218.187,64.9581 218.521,61.6248 219.5,58.5 Z"/></g>
<g><path style="opacity:1" fill="#ca8d86" d="M 116.5,41.5 C 116.5,42.1667 116.5,42.8333 116.5,43.5C 113.236,45.0941 110.569,47.4275 108.5,50.5C 107.508,50.3284 106.842,50.6618 106.5,51.5C 102.428,53.2076 99.0948,55.8743 96.5,59.5C 92.9257,61.4011 89.9257,64.0677 87.5,67.5C 83.8998,69.4302 80.8998,72.0969 78.5,75.5C 57.2755,95.6097 41.2755,119.276 30.5,146.5C 28.9472,149.935 27.1139,153.268 25,156.5C 23.7645,162.144 21.9311,167.477 19.5,172.5C 20.1667,169.5 20.8333,166.5 21.5,163.5C 28.9576,139.918 40.1242,118.251 55,98.5C 72.2011,75.7936 92.7011,56.7936 116.5,41.5 Z"/></g>
<g><path style="opacity:1" fill="#f48074" d="M 87.5,67.5 C 85.1002,70.9031 82.1002,73.5698 78.5,75.5C 80.8998,72.0969 83.8998,69.4302 87.5,67.5 Z"/></g>
<g><path style="opacity:1" fill="#d1928b" d="M 220.5,62.5 C 223.122,78.6195 232.622,87.2862 249,88.5C 264.361,86.9136 273.527,78.5803 276.5,63.5C 277.434,64.5676 277.768,65.901 277.5,67.5C 277.371,69.2161 277.038,70.8828 276.5,72.5C 272.872,79.1275 267.872,84.4609 261.5,88.5C 255.301,90.1827 248.968,90.8494 242.5,90.5C 231.11,88.4492 223.777,81.7826 220.5,70.5C 219.503,67.6717 219.503,65.005 220.5,62.5 Z"/></g>
<g><path style="opacity:1" fill="#f49083" d="M 261.5,88.5 C 260.411,90.1171 258.744,90.9504 256.5,91C 251.648,91.8151 246.981,91.6484 242.5,90.5C 248.968,90.8494 255.301,90.1827 261.5,88.5 Z"/></g>
<g><path style="opacity:1" fill="#f9645c" d="M 453.5,128.5 C 454.239,128.369 454.906,128.536 455.5,129C 454.304,129.654 454.304,130.154 455.5,130.5C 457.784,129.157 458.617,129.824 458,132.5C 319.57,131.334 181.07,131.168 42.5,132C 41.5342,133.678 40.2009,134.345 38.5,134C 39.4601,132.581 40.2935,131.081 41,129.5C 178.097,130.666 315.264,130.832 452.5,130C 453.056,129.617 453.389,129.117 453.5,128.5 Z"/></g>
<g><path style="opacity:1" fill="#f9645d" d="M 176.5,143.5 C 175.501,209.998 175.168,276.665 175.5,343.5C 174.667,296.668 174.167,249.668 174,202.5C 174.003,206.742 173.17,210.742 171.5,214.5C 171.624,215.107 171.957,215.44 172.5,215.5C 172.688,217.103 172.188,218.437 171,219.5C 141.907,218.505 112.74,218.171 83.5,218.5C 85.42,217.935 87.0867,216.935 88.5,215.5C 91.7735,213.405 94.9402,211.071 98,208.5C 99.9608,204.953 101.461,201.286 102.5,197.5C 105.844,191.873 106.344,185.873 104,179.5C 102.703,174.021 99.8702,169.688 95.5,166.5C 91.2636,162.216 86.2636,159.216 80.5,157.5C 76.3537,156.353 72.0204,156.186 67.5,157C 65.5087,157.374 63.842,158.207 62.5,159.5C 50.6404,165.143 44.3071,174.643 43.5,188C 43.336,190.544 44.0027,192.71 45.5,194.5C 47.486,202.686 51.8193,209.52 58.5,215C 61.738,215.125 64.4047,216.292 66.5,218.5C 64.1155,218.557 61.7822,218.223 59.5,217.5C 57.9707,217.529 56.804,218.196 56,219.5C 42.2417,218.344 28.4083,218.177 14.5,219C 12.0266,220.925 12.0266,222.758 14.5,224.5C 13.5022,227.028 12.6689,227.028 12,224.5C 11.5005,230.491 11.3338,236.491 11.5,242.5C 10.6586,244.379 10.3253,246.379 10.5,248.5C 10.5,254.167 10.5,259.833 10.5,265.5C 9.53178,263.393 9.19845,261.059 9.5,258.5C 9.5,249.167 9.5,239.833 9.5,230.5C 9.25293,227.061 9.58627,223.728 10.5,220.5C 12.0686,212.999 13.4019,205.332 14.5,197.5C 15.5603,189.377 17.227,181.377 19.5,173.5C 19.5,173.167 19.5,172.833 19.5,172.5C 21.9311,167.477 23.7645,162.144 25,156.5C 27.1139,153.268 28.9472,149.935 30.5,146.5C 32.7978,143.273 35.1312,139.939 37.5,136.5C 38.6086,135.41 39.6086,135.41 40.5,136.5C 39.675,137.386 38.675,137.719 37.5,137.5C 37.5,138.5 37.5,139.5 37.5,140.5C 83.8333,140.5 130.167,140.5 176.5,140.5C 176.5,141.5 176.5,142.5 176.5,143.5 Z M 95.5,168.5 C 102.328,176.482 104.328,185.482 101.5,195.5C 95.9215,210.13 85.2548,216.963 69.5,216C 57.5051,212.174 49.8384,204.341 46.5,192.5C 45.1497,177.192 51.4831,166.525 65.5,160.5C 77.1111,157.9 87.1111,160.566 95.5,168.5 Z"/></g>
<g><path style="opacity:1" fill="#f9645d" d="M 469.5,150.5 C 476.464,165.062 481.464,180.396 484.5,196.5C 486.541,205.04 487.541,213.707 487.5,222.5C 486.751,221.469 486.085,220.302 485.5,219C 471.167,218.333 456.833,218.333 442.5,219C 441,219.5 439.5,220 438,220.5C 435.23,219.652 432.397,219.319 429.5,219.5C 421.819,222.171 414.319,221.171 407,216.5C 405.941,216.63 405.108,217.13 404.5,218C 363.596,218.83 322.762,218.663 282,217.5C 279.673,220.659 277.173,223.659 274.5,226.5C 273.833,226.5 273.167,226.5 272.5,226.5C 272.577,225.25 273.244,224.417 274.5,224C 274.167,223.667 273.833,223.333 273.5,223C 275.286,222.215 276.786,221.049 278,219.5C 281.904,211.764 287.404,205.431 294.5,200.5C 295.167,198.5 295.833,196.5 296.5,194.5C 301.867,191.639 305.533,187.306 307.5,181.5C 309.931,178.887 312.265,176.054 314.5,173C 313.742,171.636 314.242,170.469 316,169.5C 316.608,167.846 317.108,166.179 317.5,164.5C 317.427,162.973 318.094,161.973 319.5,161.5C 321.914,160.089 323.581,158.089 324.5,155.5C 325.481,153.511 326.481,151.511 327.5,149.5C 327.471,147.971 326.804,146.804 325.5,146C 311.5,145.333 297.5,145.333 283.5,146C 278.909,150.751 274.909,155.918 271.5,161.5C 269.413,162.585 268.08,164.251 267.5,166.5C 265.413,167.585 264.08,169.251 263.5,171.5C 261.738,172.262 260.738,173.596 260.5,175.5C 257.791,178.208 255.458,181.208 253.5,184.5C 251.016,186.8 249.016,189.467 247.5,192.5C 245.086,193.911 243.419,195.911 242.5,198.5C 241.094,198.973 240.427,199.973 240.5,201.5C 238.413,202.585 237.08,204.251 236.5,206.5C 234.738,207.262 233.738,208.596 233.5,210.5C 231.413,211.585 230.08,213.251 229.5,215.5C 227.5,217.833 225.5,220.167 223.5,222.5C 220.833,222.5 218.167,222.5 215.5,222.5C 215.831,196.661 215.498,170.995 214.5,145.5C 214.5,144.833 214.167,144.5 213.5,144.5C 213.5,143.833 213.167,143.5 212.5,143.5C 200.993,142.833 189.326,142.167 177.5,141.5C 178.833,140.833 180.167,140.167 181.5,139.5C 190.833,138.167 200.167,138.167 209.5,139.5C 210.736,140.357 212.069,141.023 213.5,141.5C 295.126,140.669 376.793,140.169 458.5,140C 459.227,138.601 459.727,137.101 460,135.5C 461,137.167 462.333,138.5 464,139.5C 465.309,141.686 465.476,143.853 464.5,146C 466.076,147.713 467.743,149.213 469.5,150.5 Z M 451.5,185.5 C 451.873,205.129 442.207,215.462 422.5,216.5C 406.585,214.585 397.585,205.585 395.5,189.5C 395.5,188.5 395.5,187.5 395.5,186.5C 396.434,185.432 396.768,184.099 396.5,182.5C 400.377,168.298 409.71,160.631 424.5,159.5C 438.8,161.291 448.133,169.125 452.5,183C 451.748,183.671 451.414,184.504 451.5,185.5 Z"/></g>
<g><path style="opacity:1" fill="#f9f9f9" d="M 177.5,143.5 C 189.167,143.5 200.833,143.5 212.5,143.5C 213.167,143.5 213.5,143.833 213.5,144.5C 213.667,158.837 213.5,173.171 213,187.5C 210.275,171.467 208.942,171.8 209,188.5C 198.167,187.177 187.333,187.177 176.5,188.5C 176.184,173.422 176.517,158.422 177.5,143.5 Z"/></g>
<g><path style="opacity:1" fill="#f9f6f6" d="M 324.5,155.5 C 322.086,156.911 320.419,158.911 319.5,161.5C 318.094,161.973 317.427,162.973 317.5,164.5C 315.871,165.625 314.371,166.959 313,168.5C 309.255,173.398 305.755,178.398 302.5,183.5C 300.473,184.861 298.806,186.527 297.5,188.5C 295.83,188.249 294.33,187.582 293,186.5C 282.243,187.653 271.41,187.82 260.5,187C 259.285,184.904 258.451,185.071 258,187.5C 257.578,185.574 256.411,184.574 254.5,184.5C 255.287,182.896 256.62,182.229 258.5,182.5C 258.4,179.892 259.067,177.558 260.5,175.5C 260.738,173.596 261.738,172.262 263.5,171.5C 265.587,170.415 266.92,168.749 267.5,166.5C 269.587,165.415 270.92,163.749 271.5,161.5C 274.909,155.918 278.909,150.751 283.5,146C 297.5,145.333 311.5,145.333 325.5,146C 326.804,146.804 327.471,147.971 327.5,149.5C 326.481,151.511 325.481,153.511 324.5,155.5 Z"/></g>
<g><path style="opacity:1" fill="#ed7873" d="M 80.5,157.5 C 75.2169,157.096 70.2169,157.762 65.5,159.5C 64.5,159.5 63.5,159.5 62.5,159.5C 63.842,158.207 65.5087,157.374 67.5,157C 72.0204,156.186 76.3537,156.353 80.5,157.5 Z"/></g>
<g><path style="opacity:1" fill="#e79189" d="M 324.5,155.5 C 323.581,158.089 321.914,160.089 319.5,161.5C 320.419,158.911 322.086,156.911 324.5,155.5 Z"/></g>
<g><path style="opacity:1" fill="#c78883" d="M 80.5,157.5 C 86.2636,159.216 91.2636,162.216 95.5,166.5C 95.5,167.167 95.5,167.833 95.5,168.5C 87.1111,160.566 77.1111,157.9 65.5,160.5C 65.5,160.167 65.5,159.833 65.5,159.5C 70.2169,157.762 75.2169,157.096 80.5,157.5 Z"/></g>
<g><path style="opacity:1" fill="#f9cfca" d="M 271.5,161.5 C 270.92,163.749 269.587,165.415 267.5,166.5C 268.08,164.251 269.413,162.585 271.5,161.5 Z"/></g>
<g><path style="opacity:1" fill="#c19d97" d="M 21.5,163.5 C 20.8333,166.5 20.1667,169.5 19.5,172.5C 19.5,172.833 19.5,173.167 19.5,173.5C 18.609,174.11 17.609,174.443 16.5,174.5C 17.9927,170.66 19.6594,166.993 21.5,163.5 Z"/></g>
<g><path style="opacity:1" fill="#d27f79" d="M 453.5,192.5 C 454.01,189.612 453.344,187.279 451.5,185.5C 451.414,184.504 451.748,183.671 452.5,183C 448.133,169.125 438.8,161.291 424.5,159.5C 409.71,160.631 400.377,168.298 396.5,182.5C 395.414,182.62 394.747,183.287 394.5,184.5C 394.543,185.416 394.876,186.083 395.5,186.5C 395.5,187.5 395.5,188.5 395.5,189.5C 394.532,191.607 394.198,193.941 394.5,196.5C 392.862,188.774 393.529,181.108 396.5,173.5C 400.284,169.427 403.951,165.26 407.5,161C 423.911,154.703 438.077,157.87 450,170.5C 453.773,177.547 454.939,184.88 453.5,192.5 Z"/></g>
<g><path style="opacity:1" fill="#fabebb" d="M 267.5,166.5 C 266.92,168.749 265.587,170.415 263.5,171.5C 264.08,169.251 265.413,167.585 267.5,166.5 Z"/></g>
<g><path style="opacity:1" fill="#d68580" d="M 95.5,166.5 C 99.8702,169.688 102.703,174.021 104,179.5C 106.344,185.873 105.844,191.873 102.5,197.5C 102.672,196.508 102.338,195.842 101.5,195.5C 104.328,185.482 102.328,176.482 95.5,168.5C 95.5,167.833 95.5,167.167 95.5,166.5 Z"/></g>
<g><path style="opacity:1" fill="#ca8b84" d="M 417.5,69.5 C 453.792,105.769 477.125,148.769 487.5,198.5C 486.222,198.218 485.222,197.551 484.5,196.5C 481.464,180.396 476.464,165.062 469.5,150.5C 469.005,148.518 468.505,146.518 468,144.5C 454.678,116.989 437.178,92.3222 415.5,70.5C 416.492,70.6716 417.158,70.3382 417.5,69.5 Z"/></g>
<g><path style="opacity:1" fill="#e7685e" d="M 317.5,164.5 C 317.108,166.179 316.608,167.846 316,169.5C 314.242,170.469 313.742,171.636 314.5,173C 312.265,176.054 309.931,178.887 307.5,181.5C 305.833,182.167 304.167,182.833 302.5,183.5C 305.755,178.398 309.255,173.398 313,168.5C 314.371,166.959 315.871,165.625 317.5,164.5 Z"/></g>
<g><path style="opacity:1" fill="#f9d8d7" d="M 260.5,175.5 C 259.067,177.558 258.4,179.892 258.5,182.5C 256.62,182.229 255.287,182.896 254.5,184.5C 254.167,184.5 253.833,184.5 253.5,184.5C 255.458,181.208 257.791,178.208 260.5,175.5 Z"/></g>
<g><path style="opacity:1" fill="#d68680" d="M 62.5,159.5 C 63.5,159.5 64.5,159.5 65.5,159.5C 65.5,159.833 65.5,160.167 65.5,160.5C 51.4831,166.525 45.1497,177.192 46.5,192.5C 45.6618,192.842 45.3284,193.508 45.5,194.5C 44.0027,192.71 43.336,190.544 43.5,188C 44.3071,174.643 50.6404,165.143 62.5,159.5 Z"/></g>
<g><path style="opacity:1" fill="#e87a74" d="M 214.5,145.5 C 215.498,170.995 215.831,196.661 215.5,222.5C 218.167,222.5 220.833,222.5 223.5,222.5C 220.713,223.477 217.713,223.81 214.5,223.5C 214.5,197.5 214.5,171.5 214.5,145.5 Z"/></g>
<g><path style="opacity:1" fill="#a07169" d="M 396.5,182.5 C 396.768,184.099 396.434,185.432 395.5,186.5C 394.876,186.083 394.543,185.416 394.5,184.5C 394.747,183.287 395.414,182.62 396.5,182.5 Z"/></g>
<g><path style="opacity:1" fill="#f3f1f1" d="M 213.5,144.5 C 214.167,144.5 214.5,144.833 214.5,145.5C 214.5,171.5 214.5,197.5 214.5,223.5C 217.713,223.81 220.713,223.477 223.5,222.5C 225.5,220.167 227.5,217.833 229.5,215.5C 231.587,214.415 232.92,212.749 233.5,210.5C 233.738,208.596 234.738,207.262 236.5,206.5C 238.587,205.415 239.92,203.749 240.5,201.5C 240.427,199.973 241.094,198.973 242.5,198.5C 244.914,197.089 246.581,195.089 247.5,192.5C 249.016,189.467 251.016,186.8 253.5,184.5C 253.833,184.5 254.167,184.5 254.5,184.5C 256.411,184.574 257.578,185.574 258,187.5C 258.451,185.071 259.285,184.904 260.5,187C 271.41,187.82 282.243,187.653 293,186.5C 294.33,187.582 295.83,188.249 297.5,188.5C 296.075,189.922 295.075,191.589 294.5,193.5C 292.413,194.585 291.08,196.251 290.5,198.5C 288.413,199.585 287.08,201.251 286.5,203.5C 284.016,205.8 282.016,208.467 280.5,211.5C 278.413,212.585 277.08,214.251 276.5,216.5C 274.413,217.585 273.08,219.251 272.5,221.5C 270.413,222.585 269.08,224.251 268.5,226.5C 266.413,227.585 265.08,229.251 264.5,231.5C 261.299,234.542 258.633,238.042 256.5,242C 258.399,244.389 260.066,246.889 261.5,249.5C 261.888,252.681 263.222,255.348 265.5,257.5C 264.316,258.688 264.316,259.855 265.5,261C 253.833,261.667 242.167,261.667 230.5,261C 229.892,260.13 229.059,259.63 228,259.5C 226.594,260.414 225.094,261.08 223.5,261.5C 220.5,261.5 217.5,261.5 214.5,261.5C 213.85,261.804 213.183,262.137 212.5,262.5C 211.719,261.271 211.219,259.938 211,258.5C 210.626,259.416 210.126,260.25 209.5,261C 198.505,261.5 187.505,261.667 176.5,261.5C 176.5,237.167 176.5,212.833 176.5,188.5C 187.333,187.177 198.167,187.177 209,188.5C 208.942,171.8 210.275,171.467 213,187.5C 213.5,173.171 213.667,158.837 213.5,144.5 Z"/></g>
<g><path style="opacity:1" fill="#d38e89" d="M 19.5,173.5 C 17.227,181.377 15.5603,189.377 14.5,197.5C 11.7904,204.792 10.4571,212.459 10.5,220.5C 9.58627,223.728 9.25293,227.061 9.5,230.5C 8.51658,234.298 8.18325,238.298 8.5,242.5C 8.16667,242.5 7.83333,242.5 7.5,242.5C 7.52214,219.351 10.5221,196.685 16.5,174.5C 17.609,174.443 18.609,174.11 19.5,173.5 Z"/></g>
<g><path style="opacity:1" fill="#e58079" d="M 302.5,183.5 C 300.792,187.572 298.126,190.905 294.5,193.5C 295.075,191.589 296.075,189.922 297.5,188.5C 298.806,186.527 300.473,184.861 302.5,183.5 Z"/></g>
<g><path style="opacity:1" fill="#f9c3be" d="M 247.5,192.5 C 246.581,195.089 244.914,197.089 242.5,198.5C 243.419,195.911 245.086,193.911 247.5,192.5 Z"/></g>
<g><path style="opacity:1" fill="#e68782" d="M 294.5,193.5 C 293.92,195.749 292.587,197.415 290.5,198.5C 291.08,196.251 292.413,194.585 294.5,193.5 Z"/></g>
<g><path style="opacity:1" fill="#e78b84" d="M 290.5,198.5 C 289.92,200.749 288.587,202.415 286.5,203.5C 287.08,201.251 288.413,199.585 290.5,198.5 Z"/></g>
<g><path style="opacity:1" fill="#fac3be" d="M 240.5,201.5 C 239.92,203.749 238.587,205.415 236.5,206.5C 237.08,204.251 238.413,202.585 240.5,201.5 Z"/></g>
<g><path style="opacity:1" fill="#c88b87" d="M 451.5,185.5 C 453.344,187.279 454.01,189.612 453.5,192.5C 451.396,206.604 443.396,215.27 429.5,218.5C 426.612,219.01 424.279,218.344 422.5,216.5C 442.207,215.462 451.873,205.129 451.5,185.5 Z"/></g>
<g><path style="opacity:1" fill="#f3726e" d="M 14.5,197.5 C 13.4019,205.332 12.0686,212.999 10.5,220.5C 10.4571,212.459 11.7904,204.792 14.5,197.5 Z"/></g>
<g><path style="opacity:1" fill="#d38b85" d="M 395.5,189.5 C 397.585,205.585 406.585,214.585 422.5,216.5C 424.279,218.344 426.612,219.01 429.5,218.5C 429.5,218.833 429.5,219.167 429.5,219.5C 416.043,220.351 405.376,215.351 397.5,204.5C 396.487,201.812 395.487,199.146 394.5,196.5C 394.198,193.941 394.532,191.607 395.5,189.5 Z"/></g>
<g><path style="opacity:1" fill="#f6bfbc" d="M 233.5,210.5 C 232.92,212.749 231.587,214.415 229.5,215.5C 230.08,213.251 231.413,211.585 233.5,210.5 Z"/></g>
<g><path style="opacity:1" fill="#fa6357" d="M 11.5,242.5 C 11.3338,236.491 11.5005,230.491 12,224.5C 12.6689,227.028 13.5022,227.028 14.5,224.5C 12.0266,222.758 12.0266,220.925 14.5,219C 28.4083,218.177 42.2417,218.344 56,219.5C 56.804,218.196 57.9707,217.529 59.5,217.5C 61.7822,218.223 64.1155,218.557 66.5,218.5C 66.8333,218.5 67.1667,218.5 67.5,218.5C 72.6894,219.702 78.0227,219.702 83.5,218.5C 112.74,218.171 141.907,218.505 171,219.5C 172.188,218.437 172.688,217.103 172.5,215.5C 172.981,223.751 172.981,232.751 172.5,242.5C 118.833,242.5 65.1667,242.5 11.5,242.5 Z"/></g>
<g><path style="opacity:1" fill="#e3817d" d="M 280.5,211.5 C 279.92,213.749 278.587,215.415 276.5,216.5C 277.08,214.251 278.413,212.585 280.5,211.5 Z"/></g>
<g><path style="opacity:1" fill="#ce8f8a" d="M 46.5,192.5 C 49.8384,204.341 57.5051,212.174 69.5,216C 85.2548,216.963 95.9215,210.13 101.5,195.5C 102.338,195.842 102.672,196.508 102.5,197.5C 101.461,201.286 99.9608,204.953 98,208.5C 94.9402,211.071 91.7735,213.405 88.5,215.5C 81.7369,217.982 74.7369,218.982 67.5,218.5C 67.1667,218.5 66.8333,218.5 66.5,218.5C 64.4047,216.292 61.738,215.125 58.5,215C 51.8193,209.52 47.486,202.686 45.5,194.5C 45.3284,193.508 45.6618,192.842 46.5,192.5 Z"/></g>
<g><path style="opacity:1" fill="#fa6357" d="M 429.5,219.5 C 432.397,219.319 435.23,219.652 438,220.5C 439.5,220 441,219.5 442.5,219C 456.833,218.333 471.167,218.333 485.5,219C 486.085,220.302 486.751,221.469 487.5,222.5C 487.5,233.5 487.5,244.5 487.5,255.5C 486.517,251.702 486.183,247.702 486.5,243.5C 412.334,242.667 338.001,242.167 263.5,242C 265.667,239.833 267.833,237.667 270,235.5C 270.49,234.207 270.657,232.873 270.5,231.5C 271.833,231.5 273.167,231.5 274.5,231.5C 274.822,229.525 274.822,227.858 274.5,226.5C 277.173,223.659 279.673,220.659 282,217.5C 322.762,218.663 363.596,218.83 404.5,218C 405.108,217.13 405.941,216.63 407,216.5C 414.319,221.171 421.819,222.171 429.5,219.5 Z"/></g>
<g><path style="opacity:1" fill="#f77c76" d="M 88.5,215.5 C 87.0867,216.935 85.42,217.935 83.5,218.5C 78.0227,219.702 72.6894,219.702 67.5,218.5C 74.7369,218.982 81.7369,217.982 88.5,215.5 Z"/></g>
<g><path style="opacity:1" fill="#e6837f" d="M 276.5,216.5 C 275.92,218.749 274.587,220.415 272.5,221.5C 273.08,219.251 274.413,217.585 276.5,216.5 Z"/></g>
<g><path style="opacity:1" fill="#e58681" d="M 272.5,221.5 C 271.92,223.749 270.587,225.415 268.5,226.5C 269.08,224.251 270.413,222.585 272.5,221.5 Z"/></g>
<g><path style="opacity:1" fill="#f95c57" d="M 175.5,343.5 C 175.833,343.5 176.167,343.5 176.5,343.5C 176.5,344.167 176.833,344.5 177.5,344.5C 178.936,346.083 180.602,347.583 182.5,349C 191.5,349.667 200.5,349.667 209.5,349C 211.459,348.069 213.459,347.236 215.5,346.5C 216.332,336.517 216.832,326.517 217,316.5C 217.333,317.833 217.667,319.167 218,320.5C 218.667,315.833 218.667,311.167 218,306.5C 217.667,309.5 217.333,312.5 217,315.5C 216.875,299.95 217.208,284.283 218,268.5C 222.268,265.607 225.602,266.607 228,271.5C 228.383,270.944 228.883,270.611 229.5,270.5C 230.6,272.277 231.434,274.277 232,276.5C 233.429,276.47 234.929,276.803 236.5,277.5C 238.167,278.5 239.5,279.833 240.5,281.5C 240.427,283.027 241.094,284.027 242.5,284.5C 244.156,286.46 245.823,288.46 247.5,290.5C 250.196,294.61 252.529,298.943 254.5,303.5C 256.97,305.538 259.637,307.205 262.5,308.5C 263.419,311.089 265.086,313.089 267.5,314.5C 272.51,319.512 277.177,324.845 281.5,330.5C 281.67,331.822 281.337,332.989 280.5,334C 283.371,336.703 286.038,339.536 288.5,342.5C 288.5,343.833 288.5,345.167 288.5,346.5C 291.016,346.755 293.35,347.589 295.5,349C 308.833,349.667 322.167,349.667 335.5,349C 337.5,347.667 339.5,346.333 341.5,345C 339.519,344.395 339.185,343.395 340.5,342C 339.468,340.373 338.134,339.207 336.5,338.5C 331.735,332.646 326.735,326.979 321.5,321.5C 321.262,319.596 320.262,318.262 318.5,317.5C 308.167,304.833 297.833,292.167 287.5,279.5C 287.509,277.692 287.009,276.025 286,274.5C 282.833,270.833 279.667,267.167 276.5,263.5C 275.614,262.675 275.281,261.675 275.5,260.5C 274.5,260.5 273.5,260.5 272.5,260.5C 272.567,259.041 272.234,257.708 271.5,256.5C 272.695,256.322 273.862,255.989 275,255.5C 345.875,256.165 416.709,256.832 487.5,257.5C 487.5,260.5 487.5,263.5 487.5,266.5C 484.351,300.669 474.685,332.669 458.5,362.5C 455.415,367.672 452.081,372.672 448.5,377.5C 449.479,373.355 451.645,369.022 455,364.5C 455.808,362.421 455.641,360.421 454.5,358.5C 451.833,359.5 451.833,360.5 454.5,361.5C 454.023,362.478 453.357,363.311 452.5,364C 427.636,364.181 402.803,364.681 378,365.5C 376.005,363.924 374.505,364.257 373.5,366.5C 367.712,364.014 361.712,362.348 355.5,361.5C 351.347,361.133 347.68,362.133 344.5,364.5C 342.883,365.038 341.216,365.371 339.5,365.5C 340.996,363.904 342.163,362.238 343,360.5C 339.801,361.592 336.968,363.259 334.5,365.5C 276.874,364.338 219.207,364.171 161.5,365C 162.451,365.718 162.617,366.551 162,367.5C 161.28,365.745 160.113,364.911 158.5,365C 159.386,366.615 160.386,368.115 161.5,369.5C 155.287,364.898 148.287,362.232 140.5,361.5C 134.344,362.777 128.344,364.443 122.5,366.5C 121.778,366.082 121.278,365.416 121,364.5C 95.3727,364.353 69.5394,364.52 43.5,365C 44.1667,365.333 44.8333,365.667 45.5,366C 44.7476,366.671 44.4142,367.504 44.5,368.5C 42.5491,367.284 41.0491,365.618 40,363.5C 29.6442,343.789 21.8109,323.122 16.5,301.5C 14.1916,290.933 12.5249,280.266 11.5,269.5C 11.5,264.833 11.5,260.167 11.5,255.5C 64.4704,256.487 117.47,256.82 170.5,256.5C 170.5,252.167 170.5,247.833 170.5,243.5C 118.167,243.5 65.8333,243.5 13.5,243.5C 13.5,245.167 13.5,246.833 13.5,248.5C 12.5,248.5 11.5,248.5 10.5,248.5C 10.3253,246.379 10.6586,244.379 11.5,242.5C 65.1667,242.5 118.833,242.5 172.5,242.5C 172.981,232.751 172.981,223.751 172.5,215.5C 171.957,215.44 171.624,215.107 171.5,214.5C 173.17,210.742 174.003,206.742 174,202.5C 174.167,249.668 174.667,296.668 175.5,343.5 Z"/></g>
<g><path style="opacity:1" fill="#f95d57" d="M 272.5,226.5 C 273.167,226.5 273.833,226.5 274.5,226.5C 274.822,227.858 274.822,229.525 274.5,231.5C 273.167,231.5 271.833,231.5 270.5,231.5C 270.657,232.873 270.49,234.207 270,235.5C 267.833,237.667 265.667,239.833 263.5,242C 338.001,242.167 412.334,242.667 486.5,243.5C 412.833,243.5 339.167,243.5 265.5,243.5C 265.227,245.451 265.893,246.951 267.5,248C 267.167,248.333 266.833,248.667 266.5,249C 268.047,249.333 269.38,248.833 270.5,247.5C 270.833,247.833 271.167,248.167 271.5,248.5C 270.833,249.5 270.167,250.5 269.5,251.5C 270.95,252.85 271.617,254.516 271.5,256.5C 269.187,255.5 267.187,254.166 265.5,252.5C 265.267,249.091 263.6,246.591 260.5,245C 264.384,238.725 268.384,232.558 272.5,226.5 Z"/></g>
<g><path style="opacity:1" fill="#ec5e57" d="M 307.5,181.5 C 305.533,187.306 301.867,191.639 296.5,194.5C 295.833,196.5 295.167,198.5 294.5,200.5C 287.404,205.431 281.904,211.764 278,219.5C 276.786,221.049 275.286,222.215 273.5,223C 273.833,223.333 274.167,223.667 274.5,224C 273.244,224.417 272.577,225.25 272.5,226.5C 268.384,232.558 264.384,238.725 260.5,245C 263.6,246.591 265.267,249.091 265.5,252.5C 264.167,251.5 262.833,250.5 261.5,249.5C 260.066,246.889 258.399,244.389 256.5,242C 258.633,238.042 261.299,234.542 264.5,231.5C 266.587,230.415 267.92,228.749 268.5,226.5C 270.587,225.415 271.92,223.749 272.5,221.5C 274.587,220.415 275.92,218.749 276.5,216.5C 278.587,215.415 279.92,213.749 280.5,211.5C 282.016,208.467 284.016,205.8 286.5,203.5C 288.587,202.415 289.92,200.749 290.5,198.5C 292.587,197.415 293.92,195.749 294.5,193.5C 298.126,190.905 300.792,187.572 302.5,183.5C 304.167,182.833 305.833,182.167 307.5,181.5 Z"/></g>
<g><path style="opacity:1" fill="#e58886" d="M 268.5,226.5 C 267.92,228.749 266.587,230.415 264.5,231.5C 265.08,229.251 266.413,227.585 268.5,226.5 Z"/></g>
<g><path style="opacity:1" fill="#f46e6b" d="M 487.5,222.5 C 490.106,237.163 490.106,251.83 487.5,266.5C 487.5,263.5 487.5,260.5 487.5,257.5C 487.5,256.833 487.5,256.167 487.5,255.5C 487.5,244.5 487.5,233.5 487.5,222.5 Z"/></g>
<g><path style="opacity:1" fill="#a57872" d="M 7.5,242.5 C 7.83333,242.5 8.16667,242.5 8.5,242.5C 8.76781,244.099 8.43448,245.432 7.5,246.5C 6.16667,245.167 6.16667,243.833 7.5,242.5 Z"/></g>
<g><path style="opacity:1" fill="#fa5d5d" d="M 11.5,269.5 C 11.1667,269.5 10.8333,269.5 10.5,269.5C 10.5,268.167 10.5,266.833 10.5,265.5C 10.5,259.833 10.5,254.167 10.5,248.5C 11.5,248.5 12.5,248.5 13.5,248.5C 13.5,246.833 13.5,245.167 13.5,243.5C 65.8333,243.5 118.167,243.5 170.5,243.5C 170.5,247.833 170.5,252.167 170.5,256.5C 117.47,256.82 64.4704,256.487 11.5,255.5C 11.5,260.167 11.5,264.833 11.5,269.5 Z"/></g>
<g><path style="opacity:1" fill="#f95d5c" d="M 486.5,243.5 C 486.183,247.702 486.517,251.702 487.5,255.5C 487.5,256.167 487.5,256.833 487.5,257.5C 416.709,256.832 345.875,256.165 275,255.5C 273.862,255.989 272.695,256.322 271.5,256.5C 271.617,254.516 270.95,252.85 269.5,251.5C 270.167,250.5 270.833,249.5 271.5,248.5C 271.167,248.167 270.833,247.833 270.5,247.5C 269.38,248.833 268.047,249.333 266.5,249C 266.833,248.667 267.167,248.333 267.5,248C 265.893,246.951 265.227,245.451 265.5,243.5C 339.167,243.5 412.833,243.5 486.5,243.5 Z"/></g>
<g><path style="opacity:1" fill="#ee908a" d="M 9.5,230.5 C 9.5,239.833 9.5,249.167 9.5,258.5C 8.83333,258.167 8.16667,257.833 7.5,257.5C 7.5,253.833 7.5,250.167 7.5,246.5C 8.43448,245.432 8.76781,244.099 8.5,242.5C 8.18325,238.298 8.51658,234.298 9.5,230.5 Z"/></g>
<g><path style="opacity:1" fill="#f5dbd9" d="M 261.5,249.5 C 262.833,250.5 264.167,251.5 265.5,252.5C 267.526,255.518 269.526,258.518 271.5,261.5C 269.482,260.141 267.482,258.807 265.5,257.5C 263.222,255.348 261.888,252.681 261.5,249.5 Z"/></g>
<g><path style="opacity:1" fill="#edebea" d="M 265.5,257.5 C 267.482,258.807 269.482,260.141 271.5,261.5C 272.5,261.833 273.167,262.5 273.5,263.5C 274.08,265.749 275.413,267.415 277.5,268.5C 280.833,272.167 284.167,275.833 287.5,279.5C 297.833,292.167 308.167,304.833 318.5,317.5C 318.738,319.404 319.738,320.738 321.5,321.5C 326.735,326.979 331.735,332.646 336.5,338.5C 338.062,340.901 337.729,342.901 335.5,344.5C 321.118,344.8 306.785,344.466 292.5,343.5C 289.179,338.848 285.513,334.515 281.5,330.5C 277.177,324.845 272.51,319.512 267.5,314.5C 266.581,311.911 264.914,309.911 262.5,308.5C 258.247,301.91 253.247,295.91 247.5,290.5C 245.823,288.46 244.156,286.46 242.5,284.5C 242.573,282.973 241.906,281.973 240.5,281.5C 239.5,279.833 238.167,278.5 236.5,277.5C 234.118,272.752 230.784,268.752 226.5,265.5C 225.833,264.167 224.833,263.167 223.5,262.5C 223.5,262.167 223.5,261.833 223.5,261.5C 225.094,261.08 226.594,260.414 228,259.5C 229.059,259.63 229.892,260.13 230.5,261C 242.167,261.667 253.833,261.667 265.5,261C 264.316,259.855 264.316,258.688 265.5,257.5 Z"/></g>
<g><path style="opacity:1" fill="#ecebeb" d="M 214.5,261.5 C 214.5,288.5 214.5,315.5 214.5,342.5C 214.389,343.117 214.056,343.617 213.5,344C 201.505,344.5 189.505,344.667 177.5,344.5C 176.833,344.5 176.5,344.167 176.5,343.5C 176.5,316.167 176.5,288.833 176.5,261.5C 187.505,261.667 198.505,261.5 209.5,261C 210.126,260.25 210.626,259.416 211,258.5C 211.219,259.938 211.719,261.271 212.5,262.5C 213.183,262.137 213.85,261.804 214.5,261.5 Z"/></g>
<g><path style="opacity:1" fill="#f5bbb8" d="M 273.5,263.5 C 275.587,264.585 276.92,266.251 277.5,268.5C 275.413,267.415 274.08,265.749 273.5,263.5 Z"/></g>
<g><path style="opacity:1" fill="#f3665f" d="M 265.5,252.5 C 267.187,254.166 269.187,255.5 271.5,256.5C 272.234,257.708 272.567,259.041 272.5,260.5C 273.5,260.5 274.5,260.5 275.5,260.5C 275.281,261.675 275.614,262.675 276.5,263.5C 279.667,267.167 282.833,270.833 286,274.5C 287.009,276.025 287.509,277.692 287.5,279.5C 284.167,275.833 280.833,272.167 277.5,268.5C 276.92,266.251 275.587,264.585 273.5,263.5C 273.167,262.5 272.5,261.833 271.5,261.5C 269.526,258.518 267.526,255.518 265.5,252.5 Z"/></g>
<g><path style="opacity:1" fill="#ec5e58" d="M 223.5,262.5 C 224.833,263.167 225.833,264.167 226.5,265.5C 227.075,267.411 228.075,269.078 229.5,270.5C 228.883,270.611 228.383,270.944 228,271.5C 225.602,266.607 222.268,265.607 218,268.5C 217.208,284.283 216.875,299.95 217,315.5C 217.333,312.5 217.667,309.5 218,306.5C 218.667,311.167 218.667,315.833 218,320.5C 217.667,319.167 217.333,317.833 217,316.5C 216.832,326.517 216.332,336.517 215.5,346.5C 213.459,347.236 211.459,348.069 209.5,349C 200.5,349.667 191.5,349.667 182.5,349C 180.602,347.583 178.936,346.083 177.5,344.5C 189.505,344.667 201.505,344.5 213.5,344C 214.056,343.617 214.389,343.117 214.5,342.5C 215.498,316.005 215.831,289.339 215.5,262.5C 218.167,262.5 220.833,262.5 223.5,262.5 Z"/></g>
<g><path style="opacity:1" fill="#ed6f68" d="M 226.5,265.5 C 230.784,268.752 234.118,272.752 236.5,277.5C 234.929,276.803 233.429,276.47 232,276.5C 231.434,274.277 230.6,272.277 229.5,270.5C 228.075,269.078 227.075,267.411 226.5,265.5 Z"/></g>
<g><path style="opacity:1" fill="#f0d4d3" d="M 176.5,143.5 C 176.833,143.5 177.167,143.5 177.5,143.5C 176.517,158.422 176.184,173.422 176.5,188.5C 176.5,212.833 176.5,237.167 176.5,261.5C 176.5,288.833 176.5,316.167 176.5,343.5C 176.167,343.5 175.833,343.5 175.5,343.5C 175.168,276.665 175.501,209.998 176.5,143.5 Z"/></g>
<g><path style="opacity:1" fill="#e98c89" d="M 240.5,281.5 C 241.906,281.973 242.573,282.973 242.5,284.5C 241.094,284.027 240.427,283.027 240.5,281.5 Z"/></g>
<g><path style="opacity:1" fill="#ee706e" d="M 10.5,269.5 C 10.8333,269.5 11.1667,269.5 11.5,269.5C 12.5249,280.266 14.1916,290.933 16.5,301.5C 12.9439,291.247 10.9439,280.58 10.5,269.5 Z"/></g>
<g><path style="opacity:1" fill="#ef6964" d="M 247.5,290.5 C 253.247,295.91 258.247,301.91 262.5,308.5C 259.637,307.205 256.97,305.538 254.5,303.5C 252.529,298.943 250.196,294.61 247.5,290.5 Z"/></g>
<g><path style="opacity:1" fill="#e67470" d="M 214.5,261.5 C 217.5,261.5 220.5,261.5 223.5,261.5C 223.5,261.833 223.5,262.167 223.5,262.5C 220.833,262.5 218.167,262.5 215.5,262.5C 215.831,289.339 215.498,316.005 214.5,342.5C 214.5,315.5 214.5,288.5 214.5,261.5 Z"/></g>
<g><path style="opacity:1" fill="#e87572" d="M 262.5,308.5 C 264.914,309.911 266.581,311.911 267.5,314.5C 265.086,313.089 263.419,311.089 262.5,308.5 Z"/></g>
<g><path style="opacity:1" fill="#d18581" d="M 484.5,196.5 C 485.222,197.551 486.222,198.218 487.5,198.5C 497.466,257.95 488.132,313.617 459.5,365.5C 458.596,364.791 458.263,363.791 458.5,362.5C 474.685,332.669 484.351,300.669 487.5,266.5C 490.106,251.83 490.106,237.163 487.5,222.5C 487.541,213.707 486.541,205.04 484.5,196.5 Z"/></g>
<g><path style="opacity:1" fill="#f4b6b4" d="M 318.5,317.5 C 320.262,318.262 321.262,319.596 321.5,321.5C 319.738,320.738 318.738,319.404 318.5,317.5 Z"/></g>
<g><path style="opacity:1" fill="#ee6661" d="M 281.5,330.5 C 285.513,334.515 289.179,338.848 292.5,343.5C 292.5,343.833 292.5,344.167 292.5,344.5C 291.395,343.4 290.062,342.733 288.5,342.5C 286.038,339.536 283.371,336.703 280.5,334C 281.337,332.989 281.67,331.822 281.5,330.5 Z"/></g>
<g><path style="opacity:1" fill="#ed5652" d="M 336.5,338.5 C 338.134,339.207 339.468,340.373 340.5,342C 339.185,343.395 339.519,344.395 341.5,345C 339.5,346.333 337.5,347.667 335.5,349C 322.167,349.667 308.833,349.667 295.5,349C 293.35,347.589 291.016,346.755 288.5,346.5C 288.5,345.167 288.5,343.833 288.5,342.5C 290.062,342.733 291.395,343.4 292.5,344.5C 306.931,345.822 321.265,345.822 335.5,344.5C 337.729,342.901 338.062,340.901 336.5,338.5 Z"/></g>
<g><path style="opacity:1" fill="#e79b99" d="M 292.5,344.5 C 292.5,344.167 292.5,343.833 292.5,343.5C 306.785,344.466 321.118,344.8 335.5,344.5C 321.265,345.822 306.931,345.822 292.5,344.5 Z"/></g>
<g><path style="opacity:1" fill="#f95757" d="M 448.5,377.5 C 422.634,417.696 387.634,447.029 343.5,465.5C 340.279,465.896 337.612,467.229 335.5,469.5C 331.748,471.441 327.748,472.775 323.5,473.5C 320.146,473.747 317.146,474.747 314.5,476.5C 308.916,478.122 303.249,479.455 297.5,480.5C 293.163,480.584 289.163,481.584 285.5,483.5C 283.167,483.5 280.833,483.5 278.5,483.5C 265.209,482.578 251.876,482.911 238.5,484.5C 229.825,483.927 221.159,483.261 212.5,482.5C 143.51,470.843 89.0104,436.177 49,378.5C 47.1909,375.222 45.6909,371.889 44.5,368.5C 44.4142,367.504 44.7476,366.671 45.5,366C 44.8333,365.667 44.1667,365.333 43.5,365C 69.5394,364.52 95.3727,364.353 121,364.5C 121.278,365.416 121.778,366.082 122.5,366.5C 121.362,369.087 119.529,371.087 117,372.5C 115.254,376.327 113.254,379.993 111,383.5C 108.199,397.757 112.365,409.091 123.5,417.5C 123.833,418.5 124.5,419.167 125.5,419.5C 126.234,420.708 126.567,422.041 126.5,423.5C 130.835,423.738 135.169,424.071 139.5,424.5C 142.814,424.657 145.814,423.991 148.5,422.5C 157.414,419.678 164.081,414.011 168.5,405.5C 169.966,404.653 170.8,403.32 171,401.5C 171.667,396.167 171.667,390.833 171,385.5C 170.722,384.584 170.222,383.918 169.5,383.5C 168.396,377.96 165.729,373.293 161.5,369.5C 160.386,368.115 159.386,366.615 158.5,365C 160.113,364.911 161.28,365.745 162,367.5C 162.617,366.551 162.451,365.718 161.5,365C 219.207,364.171 276.874,364.338 334.5,365.5C 336.968,363.259 339.801,361.592 343,360.5C 342.163,362.238 340.996,363.904 339.5,365.5C 336.913,368.486 334.246,371.486 331.5,374.5C 330.895,377.306 329.562,379.64 327.5,381.5C 326.409,388.136 326.243,394.802 327,401.5C 327.383,402.056 327.883,402.389 328.5,402.5C 330.359,408.544 333.693,413.71 338.5,418C 339.094,418.464 339.761,418.631 340.5,418.5C 341.687,420.975 343.687,421.975 346.5,421.5C 349.526,423.019 352.859,423.685 356.5,423.5C 359.025,423.497 361.359,423.163 363.5,422.5C 370.228,420.807 375.562,417.14 379.5,411.5C 383.222,408.057 385.389,403.723 386,398.5C 388.01,385.354 383.843,374.687 373.5,366.5C 374.505,364.257 376.005,363.924 378,365.5C 402.803,364.681 427.636,364.181 452.5,364C 453.357,363.311 454.023,362.478 454.5,361.5C 451.833,360.5 451.833,359.5 454.5,358.5C 455.641,360.421 455.808,362.421 455,364.5C 451.645,369.022 449.479,373.355 448.5,377.5 Z M 378.5,410.5 C 370.899,418.369 361.566,421.703 350.5,420.5C 350.167,420.5 349.833,420.5 349.5,420.5C 339.44,416.44 332.44,409.44 328.5,399.5C 326.984,385.689 331.984,375.022 343.5,367.5C 346.373,366.125 349.373,365.125 352.5,364.5C 368.224,363.3 378.724,370.3 384,385.5C 385.922,394.738 384.088,403.072 378.5,410.5 Z"/></g>
<g><path style="opacity:1" fill="#c58882" d="M 352.5,364.5 C 349.373,365.125 346.373,366.125 343.5,367.5C 343.557,366.391 343.89,365.391 344.5,364.5C 347.352,363.742 350.019,363.742 352.5,364.5 Z"/></g>
<g><path style="opacity:1" fill="#cf827f" d="M 161.5,369.5 C 165.729,373.293 168.396,377.96 169.5,383.5C 170.295,387.785 170.628,392.119 170.5,396.5C 169.833,396.167 169.167,395.833 168.5,395.5C 168.951,376.806 159.785,366.139 141,363.5C 116.644,368.522 108.311,382.855 116,406.5C 118.696,410.361 121.863,413.694 125.5,416.5C 125.158,417.338 124.492,417.672 123.5,417.5C 112.365,409.091 108.199,397.757 111,383.5C 113.254,379.993 115.254,376.327 117,372.5C 119.529,371.087 121.362,369.087 122.5,366.5C 128.344,364.443 134.344,362.777 140.5,361.5C 148.287,362.232 155.287,364.898 161.5,369.5 Z"/></g>
<g><path style="opacity:1" fill="#d0807d" d="M 373.5,366.5 C 383.843,374.687 388.01,385.354 386,398.5C 385.389,403.723 383.222,408.057 379.5,411.5C 379.5,410.833 379.167,410.5 378.5,410.5C 384.088,403.072 385.922,394.738 384,385.5C 378.724,370.3 368.224,363.3 352.5,364.5C 350.019,363.742 347.352,363.742 344.5,364.5C 347.68,362.133 351.347,361.133 355.5,361.5C 361.712,362.348 367.712,364.014 373.5,366.5 Z"/></g>
<g><path style="opacity:1" fill="#cb7d7b" d="M 344.5,364.5 C 343.89,365.391 343.557,366.391 343.5,367.5C 331.984,375.022 326.984,385.689 328.5,399.5C 328.5,400.5 328.5,401.5 328.5,402.5C 327.883,402.389 327.383,402.056 327,401.5C 326.243,394.802 326.409,388.136 327.5,381.5C 329.562,379.64 330.895,377.306 331.5,374.5C 334.246,371.486 336.913,368.486 339.5,365.5C 341.216,365.371 342.883,365.038 344.5,364.5 Z"/></g>
<g><path style="opacity:1" fill="#f0706f" d="M 169.5,383.5 C 170.222,383.918 170.722,384.584 171,385.5C 171.667,390.833 171.667,396.167 171,401.5C 170.8,403.32 169.966,404.653 168.5,405.5C 169.323,402.539 169.99,399.539 170.5,396.5C 170.628,392.119 170.295,387.785 169.5,383.5 Z"/></g>
<g><path style="opacity:1" fill="#cb8a88" d="M 168.5,395.5 C 169.167,395.833 169.833,396.167 170.5,396.5C 169.99,399.539 169.323,402.539 168.5,405.5C 164.081,414.011 157.414,419.678 148.5,422.5C 142.824,422.666 137.157,422.499 131.5,422C 129.372,421.345 127.372,420.511 125.5,419.5C 124.5,419.167 123.833,418.5 123.5,417.5C 124.492,417.672 125.158,417.338 125.5,416.5C 141.123,424.21 154.29,421.21 165,407.5C 167.056,403.732 168.222,399.732 168.5,395.5 Z"/></g>
<g><path style="opacity:1" fill="#c68684" d="M 328.5,399.5 C 332.44,409.44 339.44,416.44 349.5,420.5C 348.791,421.404 347.791,421.737 346.5,421.5C 344.544,420.508 342.544,419.508 340.5,418.5C 339.761,418.631 339.094,418.464 338.5,418C 333.693,413.71 330.359,408.544 328.5,402.5C 328.5,401.5 328.5,400.5 328.5,399.5 Z"/></g>
<g><path style="opacity:1" fill="#eb7f7c" d="M 340.5,418.5 C 342.544,419.508 344.544,420.508 346.5,421.5C 343.687,421.975 341.687,420.975 340.5,418.5 Z"/></g>
<g><path style="opacity:1" fill="#c48985" d="M 378.5,410.5 C 379.167,410.5 379.5,410.833 379.5,411.5C 375.562,417.14 370.228,420.807 363.5,422.5C 358.706,423.097 354.373,422.43 350.5,420.5C 361.566,421.703 370.899,418.369 378.5,410.5 Z"/></g>
<g><path style="opacity:1" fill="#ed8281" d="M 349.5,420.5 C 349.833,420.5 350.167,420.5 350.5,420.5C 354.373,422.43 358.706,423.097 363.5,422.5C 361.359,423.163 359.025,423.497 356.5,423.5C 352.859,423.685 349.526,423.019 346.5,421.5C 347.791,421.737 348.791,421.404 349.5,420.5 Z"/></g>
<g><path style="opacity:1" fill="#f67371" d="M 125.5,419.5 C 127.372,420.511 129.372,421.345 131.5,422C 137.157,422.499 142.824,422.666 148.5,422.5C 145.814,423.991 142.814,424.657 139.5,424.5C 135.169,424.071 130.835,423.738 126.5,423.5C 126.567,422.041 126.234,420.708 125.5,419.5 Z"/></g>
<g><path style="opacity:1" fill="#cb7a78" d="M 458.5,362.5 C 458.263,363.791 458.596,364.791 459.5,365.5C 427.403,420.901 380.736,458.235 319.5,477.5C 320.37,475.726 321.703,474.393 323.5,473.5C 327.748,472.775 331.748,471.441 335.5,469.5C 338.721,469.104 341.388,467.771 343.5,465.5C 387.634,447.029 422.634,417.696 448.5,377.5C 452.081,372.672 455.415,367.672 458.5,362.5 Z"/></g>
<g><path style="opacity:1" fill="#d0807d" d="M 7.5,257.5 C 8.16667,257.833 8.83333,258.167 9.5,258.5C 9.19845,261.059 9.53178,263.393 10.5,265.5C 10.5,266.833 10.5,268.167 10.5,269.5C 10.9439,280.58 12.9439,291.247 16.5,301.5C 21.8109,323.122 29.6442,343.789 40,363.5C 41.0491,365.618 42.5491,367.284 44.5,368.5C 45.6909,371.889 47.1909,375.222 49,378.5C 89.0104,436.177 143.51,470.843 212.5,482.5C 216.301,483.639 220.301,484.472 224.5,485C 223.944,485.383 223.611,485.883 223.5,486.5C 132.342,473.505 66.8417,425.505 27,342.5C 15.4894,315.468 8.98937,287.135 7.5,257.5 Z"/></g>
<g><path style="opacity:1" fill="#e8706f" d="M 343.5,465.5 C 341.388,467.771 338.721,469.104 335.5,469.5C 337.612,467.229 340.279,465.896 343.5,465.5 Z"/></g>
<g><path style="opacity:1" fill="#e57673" d="M 323.5,473.5 C 321.703,474.393 320.37,475.726 319.5,477.5C 318.833,477.5 318.167,477.5 317.5,477.5C 316.791,476.596 315.791,476.263 314.5,476.5C 317.146,474.747 320.146,473.747 323.5,473.5 Z"/></g>
<g><path style="opacity:1" fill="#cb8380" d="M 314.5,476.5 C 315.791,476.263 316.791,476.596 317.5,477.5C 308.508,480.748 299.175,483.081 289.5,484.5C 291.793,482.578 294.459,481.245 297.5,480.5C 303.249,479.455 308.916,478.122 314.5,476.5 Z"/></g>
<g><path style="opacity:1" fill="#e47e7b" d="M 297.5,480.5 C 294.459,481.245 291.793,482.578 289.5,484.5C 288.833,484.5 288.167,484.5 287.5,484.5C 287.158,483.662 286.492,483.328 285.5,483.5C 289.163,481.584 293.163,480.584 297.5,480.5 Z"/></g>
<g><path style="opacity:1" fill="#f56562" d="M 278.5,483.5 C 277.432,484.434 276.099,484.768 274.5,484.5C 262.506,485.023 250.506,485.357 238.5,485.5C 238.5,485.167 238.5,484.833 238.5,484.5C 251.876,482.911 265.209,482.578 278.5,483.5 Z"/></g>
<g><path style="opacity:1" fill="#ec7d7c" d="M 212.5,482.5 C 221.159,483.261 229.825,483.927 238.5,484.5C 238.5,484.833 238.5,485.167 238.5,485.5C 234.298,485.183 230.298,485.517 226.5,486.5C 225.5,486.5 224.5,486.5 223.5,486.5C 223.611,485.883 223.944,485.383 224.5,485C 220.301,484.472 216.301,483.639 212.5,482.5 Z"/></g>
<g><path style="opacity:1" fill="#dc8b86" d="M 274.5,484.5 C 274.5,485.167 274.5,485.833 274.5,486.5C 258.497,487.747 242.497,487.747 226.5,486.5C 230.298,485.517 234.298,485.183 238.5,485.5C 250.506,485.357 262.506,485.023 274.5,484.5 Z"/></g>
<g><path style="opacity:1" fill="#c48b89" d="M 278.5,483.5 C 280.833,483.5 283.167,483.5 285.5,483.5C 286.492,483.328 287.158,483.662 287.5,484.5C 283.257,485.681 278.924,486.348 274.5,486.5C 274.5,485.833 274.5,485.167 274.5,484.5C 276.099,484.768 277.432,484.434 278.5,483.5 Z"/></g>
</svg>
