<?xml version="1.0" encoding="UTF-8"?>
<!DOCTYPE svg PUBLIC "-//W3C//DTD SVG 1.1//EN" "http://www.w3.org/Graphics/SVG/1.1/DTD/svg11.dtd">
<svg xmlns="http://www.w3.org/2000/svg" version="1.1" width="500px" height="500px" style="shape-rendering:geometricPrecision; text-rendering:geometricPrecision; image-rendering:optimizeQuality; fill-rule:evenodd; clip-rule:evenodd" xmlns:xlink="http://www.w3.org/1999/xlink">
<g><path style="opacity:1" fill="#f9f9f9" d="M 56.5,-0.5 C 185.167,-0.5 313.833,-0.5 442.5,-0.5C 474.048,5.38169 493.048,24.0484 499.5,55.5C 499.5,184.833 499.5,314.167 499.5,443.5C 493.048,474.952 474.048,493.618 442.5,499.5C 313.833,499.5 185.167,499.5 56.5,499.5C 24.9554,493.622 5.95544,474.956 -0.5,443.5C -0.5,314.5 -0.5,185.5 -0.5,56.5C 5.5,24.5 24.5,5.5 56.5,-0.5 Z"/></g>
<g><path style="opacity:1" fill="#050505" d="M 229.5,95.5 C 293.922,90.9673 344.422,114.967 381,167.5C 413.935,226.341 411.935,284.008 375,340.5C 331.777,394.201 276.277,413.701 208.5,399C 155.164,382.33 119.664,347.497 102,294.5C 85.3439,232.151 100.177,178.651 146.5,134C 170.69,113.554 198.356,100.72 229.5,95.5 Z"/></g>
<g><path style="opacity:1" fill="#f5f5f5" d="M 234.5,110.5 C 237.167,110.5 239.833,110.5 242.5,110.5C 242.5,119.5 242.5,128.5 242.5,137.5C 234.171,138.035 225.838,139.368 217.5,141.5C 214.999,132.83 211.999,124.33 208.5,116C 216.637,112.106 225.304,110.272 234.5,110.5 Z"/></g>
<g><path style="opacity:1" fill="#3a3a3a" d="M 234.5,110.5 C 237.287,109.523 240.287,109.19 243.5,109.5C 243.827,119.015 243.494,128.348 242.5,137.5C 242.5,128.5 242.5,119.5 242.5,110.5C 239.833,110.5 237.167,110.5 234.5,110.5 Z"/></g>
<g><path style="opacity:1" fill="#f6f6f6" d="M 264.5,110.5 C 273.757,110.234 282.424,112.234 290.5,116.5C 287.5,124.5 284.5,132.5 281.5,140.5C 280.833,140.833 280.167,141.167 279.5,141.5C 273.921,139.991 268.255,138.991 262.5,138.5C 261.081,137.549 259.415,137.216 257.5,137.5C 257.5,128.5 257.5,119.5 257.5,110.5C 259.833,110.5 262.167,110.5 264.5,110.5 Z"/></g>
<g><path style="opacity:1" fill="#adadad" d="M 264.5,110.5 C 262.167,110.5 259.833,110.5 257.5,110.5C 257.5,119.5 257.5,128.5 257.5,137.5C 259.415,137.216 261.081,137.549 262.5,138.5C 260.5,138.5 258.5,138.5 256.5,138.5C 256.5,128.833 256.5,119.167 256.5,109.5C 259.385,109.194 262.052,109.527 264.5,110.5 Z"/></g>
<g><path style="opacity:1" fill="#f3f3f3" d="M 193.5,120.5 C 194.496,120.414 195.329,120.748 196,121.5C 199.135,130.094 201.968,138.761 204.5,147.5C 197.023,150.489 189.856,154.156 183,158.5C 177.004,152.002 171.17,145.335 165.5,138.5C 173.876,130.981 183.209,124.981 193.5,120.5 Z"/></g>
<g><path style="opacity:1" fill="#f2f2f2" d="M 303.5,120.5 C 315.106,123.964 325.106,129.964 333.5,138.5C 327.878,145.454 322.045,152.12 316,158.5C 309.175,154.171 302.009,150.504 294.5,147.5C 297.298,138.438 300.298,129.438 303.5,120.5 Z"/></g>
<g><path style="opacity:1" fill="#f3f3f3" d="M 152.5,147.5 C 154.39,147.297 155.89,147.963 157,149.5C 161.847,155.678 166.681,161.844 171.5,168C 166.685,174.813 161.185,180.98 155,186.5C 146.775,182.639 138.942,178.139 131.5,173C 137.957,164.044 144.957,155.544 152.5,147.5 Z"/></g>
<g><path style="opacity:1" fill="#f3f3f3" d="M 343.5,147.5 C 344.552,147.351 345.552,147.517 346.5,148C 354.451,155.593 361.451,163.926 367.5,173C 359.369,177.635 351.369,182.468 343.5,187.5C 338.72,180.553 333.387,174.053 327.5,168C 333.058,161.283 338.391,154.45 343.5,147.5 Z"/></g>
<g><path style="opacity:1" fill="#f5f5f5" d="M 231.5,152.5 C 235.167,152.5 238.833,152.5 242.5,152.5C 242.5,161.5 242.5,170.5 242.5,179.5C 232.622,180.404 223.455,183.404 215,188.5C 209.213,182.295 203.879,175.628 199,168.5C 198.316,167.216 198.483,166.049 199.5,165C 209.504,158.82 220.17,154.653 231.5,152.5 Z"/></g>
<g><path style="opacity:1" fill="#b9b9b9" d="M 257.5,152.5 C 257.5,161.5 257.5,170.5 257.5,179.5C 259.099,179.232 260.432,179.566 261.5,180.5C 259.833,180.5 258.167,180.5 256.5,180.5C 256.173,170.985 256.506,161.652 257.5,152.5 Z"/></g>
<g><path style="opacity:1" fill="#f5f5f5" d="M 257.5,152.5 C 271.438,152.467 284.438,155.967 296.5,163C 298.327,163.899 299.66,165.233 300.5,167C 295.515,173.989 290.515,180.989 285.5,188C 277.716,185.241 269.716,182.741 261.5,180.5C 260.432,179.566 259.099,179.232 257.5,179.5C 257.5,170.5 257.5,161.5 257.5,152.5 Z"/></g>
<g><path style="opacity:1" fill="#f4f4f4" d="M 185.5,174.5 C 191.463,181.068 196.963,188.068 202,195.5C 202.667,196.5 202.667,197.5 202,198.5C 195.382,204.788 189.882,211.954 185.5,220C 176.63,218.715 167.963,216.381 159.5,213C 159.167,212.667 158.833,212.333 158.5,212C 164.654,197.362 173.654,184.862 185.5,174.5 Z"/></g>
<g><path style="opacity:1" fill="#f5f5f5" d="M 339.5,210.5 C 339.443,211.609 339.11,212.609 338.5,213.5C 331.427,215.357 324.427,217.524 317.5,220C 316.167,220.667 314.833,220.667 313.5,220C 309.297,211.265 303.63,203.598 296.5,197C 302,189.5 307.5,182 313,174.5C 325.002,184.171 333.835,196.171 339.5,210.5 Z"/></g>
<g><path style="opacity:1" fill="#f3f3f3" d="M 123.5,186.5 C 132.077,189.874 140.243,194.207 148,199.5C 148.667,200.5 148.667,201.5 148,202.5C 144.148,208.558 141.981,215.225 141.5,222.5C 132.335,222.23 123.335,220.896 114.5,218.5C 113.359,216.579 113.192,214.579 114,212.5C 116.909,203.693 120.075,195.027 123.5,186.5 Z"/></g>
<g><path style="opacity:1" fill="#f4f4f4" d="M 385.5,216.5 C 384.198,218.028 382.531,219.028 380.5,219.5C 373.974,220.266 367.474,221.266 361,222.5C 360.167,222.167 359.333,221.833 358.5,221.5C 356.901,214.111 354.234,207.111 350.5,200.5C 350.977,199.522 351.643,198.689 352.5,198C 358.331,194.919 363.998,191.585 369.5,188C 371.044,186.813 372.711,186.48 374.5,187C 379.982,196.135 383.648,205.968 385.5,216.5 Z"/></g>
<g><path style="opacity:1" fill="#f8f8f8" d="M 239.5,193.5 C 272.911,191.111 294.745,205.778 305,237.5C 308.609,272.808 293.443,295.308 259.5,305C 227.168,307.921 205.668,294.088 195,263.5C 189.557,233.889 200.057,212.055 226.5,198C 230.927,196.43 235.26,194.93 239.5,193.5 Z"/></g>
<g><path style="opacity:1" fill="#808080" d="M 339.5,210.5 C 340.885,211.947 340.552,212.947 338.5,213.5C 339.11,212.609 339.443,211.609 339.5,210.5 Z"/></g>
<g><path style="opacity:1" fill="#464646" d="M 385.5,216.5 C 386.404,217.209 386.737,218.209 386.5,219.5C 384.5,219.5 382.5,219.5 380.5,219.5C 382.531,219.028 384.198,218.028 385.5,216.5 Z"/></g>
<g><path style="opacity:1" fill="#f5f5f5" d="M 154.5,226.5 C 162.925,228.879 171.258,231.546 179.5,234.5C 179.364,243.138 179.698,251.805 180.5,260.5C 180.351,262.32 179.684,263.82 178.5,265C 170.272,268.022 161.939,270.522 153.5,272.5C 151.38,259.5 151.047,246.5 152.5,233.5C 153.924,231.485 154.59,229.152 154.5,226.5 Z"/></g>
<g><path style="opacity:1" fill="#f3f3f3" d="M 340.5,226.5 C 342.288,226.215 343.955,226.548 345.5,227.5C 347.486,240.076 347.986,252.742 347,265.5C 346.333,267.5 345.667,269.5 345,271.5C 344.275,272.059 343.442,272.392 342.5,272.5C 334.493,270.21 326.66,267.544 319,264.5C 318.833,263.5 318.667,262.5 318.5,261.5C 319.641,252.444 319.808,243.444 319,234.5C 326.298,231.904 333.465,229.237 340.5,226.5 Z"/></g>
<g><path style="opacity:1" fill="#ababab" d="M 154.5,226.5 C 154.59,229.152 153.924,231.485 152.5,233.5C 152.41,230.848 153.076,228.515 154.5,226.5 Z"/></g>
<g><path style="opacity:1" fill="#f5f5f5" d="M 109.5,232.5 C 118.783,234.154 128.117,235.487 137.5,236.5C 137.5,245.167 137.5,253.833 137.5,262.5C 128.201,264.043 118.867,265.377 109.5,266.5C 109.5,255.167 109.5,243.833 109.5,232.5 Z"/></g>
<g><path style="opacity:1" fill="#efefef" d="M 381.5,232.5 C 384.167,232.5 386.833,232.5 389.5,232.5C 390.701,243.842 390.701,255.176 389.5,266.5C 380.422,265.727 371.422,264.394 362.5,262.5C 361.502,253.859 361.169,245.192 361.5,236.5C 368.38,235.619 375.047,234.286 381.5,232.5 Z"/></g>
<g><path style="opacity:1" fill="#f3f3f3" d="M 134.5,276.5 C 136.792,276.244 138.959,276.577 141,277.5C 143.032,284.602 145.532,291.602 148.5,298.5C 148.167,299.167 147.833,299.833 147.5,300.5C 140.167,304.833 132.833,309.167 125.5,313.5C 119.511,303.199 115.511,292.199 113.5,280.5C 120.701,279.526 127.701,278.193 134.5,276.5 Z"/></g>
<g><path style="opacity:1" fill="#f4f4f4" d="M 357.5,276.5 C 366.854,277.741 376.187,279.074 385.5,280.5C 383.383,292.074 379.549,303.074 374,313.5C 365.884,309.035 358.051,304.202 350.5,299C 353.951,291.816 356.284,284.316 357.5,276.5 Z"/></g>
<g><path style="opacity:1" fill="#f4f4f4" d="M 181.5,278.5 C 183.144,278.286 184.644,278.62 186,279.5C 190.519,287.872 196.019,295.539 202.5,302.5C 197.243,310.012 191.743,317.346 186,324.5C 172.958,314.303 164.124,301.303 159.5,285.5C 167.051,283.537 174.385,281.204 181.5,278.5 Z"/></g>
<g><path style="opacity:1" fill="#f4f4f4" d="M 313.5,278.5 C 322.616,281.039 331.616,283.872 340.5,287C 334.403,301.596 325.403,314.096 313.5,324.5C 307.672,317.166 302.006,309.666 296.5,302C 303.768,295.286 309.435,287.453 313.5,278.5 Z"/></g>
<g><path style="opacity:1" fill="#f5f5f5" d="M 238.5,318.5 C 239.568,319.434 240.901,319.768 242.5,319.5C 242.5,328.5 242.5,337.5 242.5,346.5C 240.5,346.5 238.5,346.5 236.5,346.5C 222.309,345.728 209.642,341.061 198.5,332.5C 203.478,324.863 208.812,317.53 214.5,310.5C 221.94,314.98 229.94,317.647 238.5,318.5 Z"/></g>
<g><path style="opacity:1" fill="#f6f6f6" d="M 263.5,346.5 C 261.5,346.5 259.5,346.5 257.5,346.5C 257.5,337.5 257.5,328.5 257.5,319.5C 266.833,317.945 275.833,314.945 284.5,310.5C 290.192,317.378 295.526,324.545 300.5,332C 300.241,333.261 299.574,334.261 298.5,335C 287.494,340.947 275.827,344.78 263.5,346.5 Z"/></g>
<g><path style="opacity:1" fill="#f4f4f4" d="M 153.5,312.5 C 155.39,312.297 156.89,312.963 158,314.5C 162.135,320.302 166.635,325.802 171.5,331C 165.983,338.178 160.149,345.011 154,351.5C 150.046,348.549 146.379,345.216 143,341.5C 138.994,336.81 135.494,331.81 132.5,326.5C 132.833,325.833 133.167,325.167 133.5,324.5C 140.468,320.836 147.135,316.836 153.5,312.5 Z"/></g>
<g><path style="opacity:1" fill="#f4f4f4" d="M 342.5,312.5 C 351.055,316.447 359.389,320.947 367.5,326C 361.505,335.82 354.005,344.32 345,351.5C 338.802,344.97 332.969,338.136 327.5,331C 333.078,325.26 338.078,319.093 342.5,312.5 Z"/></g>
<g><path style="opacity:1" fill="#363636" d="M 238.5,318.5 C 240.167,318.5 241.833,318.5 243.5,318.5C 243.5,328.167 243.5,337.833 243.5,347.5C 240.941,347.802 238.607,347.468 236.5,346.5C 238.5,346.5 240.5,346.5 242.5,346.5C 242.5,337.5 242.5,328.5 242.5,319.5C 240.901,319.768 239.568,319.434 238.5,318.5 Z"/></g>
<g><path style="opacity:1" fill="#afafaf" d="M 257.5,319.5 C 257.5,328.5 257.5,337.5 257.5,346.5C 259.5,346.5 261.5,346.5 263.5,346.5C 261.393,347.468 259.059,347.802 256.5,347.5C 256.173,337.985 256.506,328.652 257.5,319.5 Z"/></g>
<g><path style="opacity:1" fill="#f4f4f4" d="M 181.5,340.5 C 183.901,341.049 186.235,341.882 188.5,343C 193.322,347.156 198.655,350.489 204.5,353C 201.001,361.33 198.001,369.83 195.5,378.5C 184.155,374.993 174.155,369.16 165.5,361C 171.072,354.272 176.405,347.439 181.5,340.5 Z"/></g>
<g><path style="opacity:1" fill="#f4f4f4" d="M 315.5,340.5 C 316.496,340.414 317.329,340.748 318,341.5C 323.181,348.011 328.347,354.511 333.5,361C 324.907,369.134 314.907,374.967 303.5,378.5C 300.999,369.83 297.999,361.33 294.5,353C 301.926,349.297 308.926,345.131 315.5,340.5 Z"/></g>
<g><path style="opacity:1" fill="#f2f2f2" d="M 217.5,357.5 C 225.628,359.963 233.961,360.963 242.5,360.5C 242.5,370.167 242.5,379.833 242.5,389.5C 230.913,389.435 219.579,387.769 208.5,384.5C 211.654,375.548 214.654,366.548 217.5,357.5 Z"/></g>
<g><path style="opacity:1" fill="#f5f5f5" d="M 266.5,388.5 C 263.5,388.5 260.5,388.5 257.5,388.5C 257.5,379.5 257.5,370.5 257.5,361.5C 260.059,361.802 262.393,361.468 264.5,360.5C 270.246,359.742 275.912,358.908 281.5,358C 284.692,365.906 287.692,373.906 290.5,382C 290.18,383.653 289.18,384.653 287.5,385C 280.563,386.621 273.563,387.788 266.5,388.5 Z"/></g>
<g><path style="opacity:1" fill="#a9a9a9" d="M 264.5,360.5 C 262.393,361.468 260.059,361.802 257.5,361.5C 257.5,370.5 257.5,379.5 257.5,388.5C 260.5,388.5 263.5,388.5 266.5,388.5C 263.375,389.479 260.042,389.813 256.5,389.5C 256.5,379.833 256.5,370.167 256.5,360.5C 259.167,360.5 261.833,360.5 264.5,360.5 Z"/></g>
</svg>
